<?xml version="1.0" encoding="UTF-8" standalone="no"?>
<!-- Created with Inkscape (http://www.inkscape.org/) -->

<svg
   xmlns:dc="http://purl.org/dc/elements/1.1/"
   xmlns:cc="http://creativecommons.org/ns#"
   xmlns:rdf="http://www.w3.org/1999/02/22-rdf-syntax-ns#"
   xmlns:svg="http://www.w3.org/2000/svg"
   xmlns="http://www.w3.org/2000/svg"
   xmlns:sodipodi="http://sodipodi.sourceforge.net/DTD/sodipodi-0.dtd"
   xmlns:inkscape="http://www.inkscape.org/namespaces/inkscape"
   id="svg2"
   version="1.1"
   inkscape:version="0.48.3.1 r9886"
   width="1294"
   height="1288"
   sodipodi:docname="text2419.png">
  <metadata
     id="metadata8">
    <rdf:RDF>
      <cc:Work
         rdf:about="">
        <dc:format>image/svg+xml</dc:format>
        <dc:type
           rdf:resource="http://purl.org/dc/dcmitype/StillImage" />
        <dc:title></dc:title>
      </cc:Work>
    </rdf:RDF>
  </metadata>
  <defs
     id="defs6" />
  <sodipodi:namedview
     pagecolor="#ffffff"
     bordercolor="#666666"
     borderopacity="1"
     objecttolerance="10"
     gridtolerance="10"
     guidetolerance="10"
     inkscape:pageopacity="0"
     inkscape:pageshadow="2"
     inkscape:window-width="1366"
     inkscape:window-height="721"
     id="namedview4"
     showgrid="false"
     inkscape:zoom="0.18322981"
     inkscape:cx="647"
     inkscape:cy="644"
     inkscape:window-x="-3"
     inkscape:window-y="-3"
     inkscape:window-maximized="1"
     inkscape:current-layer="svg2" />
  <path
     style="fill:#000000"
     d="m 591.421,1270.557 c -21.3939,-2.0687 -54.73491,-11.1165 -84.25151,-22.8637 -16.1607,-6.4317 -45.1312,-21.0357 -59,-29.7418 -13.5306,-8.4938 -23.3364,-15.7131 -40.5445,-29.8496 l -11.0446,-9.0732 -12.4554,-1.2644 c -31.51809,-3.1997 -50.02759,-6.1529 -69.95549,-11.1616 -110.00695,-27.6488 -195.04058,-109.2152 -228.283888,-218.97557 -5.30009,-17.4995 -9.37474,-36.5559 -12.18772,-57 -4.78024,-34.74172 -4.30771,-33.55598 -23.77069,-59.64782 C 28.411952,802.13623 16.096312,781.57044 4.2097519,754.63607 -15.998438,708.84532 -21.172968,682.20289 -21.234998,623.62712 c -0.0467,-44.12824 2.68021,-62.67515 14.2720599,-97.06919 13.63717,-40.46269 30.8285401,-71.5814 59.6258001,-107.93081 15.75599,-19.88805 16.83962,-22.60609 20.53199,-51.5 6.18862,-48.42789 14.22173,-76.1246 32.930838,-113.53964 15.89452,-31.78632 34.39806,-57.3934 59.99636,-83.02906 57.37155,-57.45528 128.56835,-88.90006 214.56274,-94.76371 15.5927,-1.06321 17.7727,-1.98121 29.05,-12.23278 15.3506,-13.95437 51.8121,-38.115459 74.9659,-49.675929 22.9144,-11.4408906 47.6694,-20.3276106 68.7605,-24.684101 31.81831,-6.57225 101.15231,-7.35582 136.59231,-1.54368 23.0633,3.7823804 43.585,10.8764404 74.116,25.620821 27.8136,13.432069 44.784,24.031199 70.9611,44.320089 21.1007,16.35435 21.8625,16.65498 50.7749,20.03787 37.039,4.33373 66.5533,12.33331 100.264,27.17559 58.9481,25.95392 112.1911,70.28757 142.771,118.88059 27.6879,43.99774 48.4223,105.63407 50.7739,150.93394 0.3284,6.325 1.2649,13.68535 2.0812,16.35632 1.7819,5.83077 7.7713,15.01157 20.3176,31.14368 35.6153,45.79418 59.8482,98.04476 67.7123,146 1.5593,9.50825 1.8034,17.44164 1.8002,58.5 0,40.75686 -0.2586,49.13255 -1.7999,59 -4.1553,26.60305 -12.659,51.13997 -29.1118,84 -15.6097,31.17599 -30.0612,52.86277 -48.1569,72.26671 -4.4965,4.82169 -8.9681,10.43685 -9.9368,12.47814 -1.262,2.65964 -1.9954,7.82675 -2.5879,18.23328 -1.1344,19.92658 -2.5278,31.74968 -5.3403,45.31238 -12.0525,58.1214 -44.6231,119.83617 -84.0245,159.20947 -25.5658,25.5476 -57.6892,48.6733 -90.3906,65.0721 -38.3327,19.2228 -72.1977,28.9241 -120.1075,34.4072 -26.6591,3.0511 -27.0535,3.2143 -46.0314,19.0469 -31.3618,26.1642 -60.8344,42.9678 -99.8383,56.9223 -21.4115,7.6605 -47.1164,13.8654 -66.1303,15.9633 -26.4133,2.9142 -58.7004,3.7632 -76.7485,2.0181 z m 52.6836,-267.865 c 2.8511,-2.85107 4.0531,-8.42217 4.0593,-18.81487 0,-5.0875 0.2049,-9.25 0.4485,-9.25 0.2435,0 2.156,1.0125 4.25,2.25 5.9144,3.4954 16.0891,3.186 23.126,-0.7032 16.8933,-9.3366 22.7522,-32.3742 12.9316,-50.8482 -3.5872,-6.7481 -7.1785,-10.0658 -14.5774,-13.4669 -7.2416,-3.3289 -17,-2.9356 -22.8261,0.92 l -3.932,2.602 -2.755,-2.3697 c -5.6222,-4.8361 -11.7187,-3.7658 -14.9084,2.6171 -1.5732,3.1481 -1.7486,7.3375 -1.75,41.781 0,40.3889 0.3191,43.56517 4.6547,46.08537 3.0605,1.779 9.129,1.3472 11.2788,-0.8026 z m 8.4987,-45.31487 c -2.7819,-2.5562 -3.6952,-4.3174 -4.2784,-8.25 -1.4543,-9.8068 1.2593,-17.0453 7.5004,-20.0069 6.1178,-2.9031 12.4864,-0.08 16.222,7.1912 1.5547,3.026 1.4058,12.7012 -0.2566,16.6799 -3.4076,8.1555 -12.7588,10.293 -19.1874,4.3858 z m 65.7166,46.16947 c 3.4877,-1.8665 4.8496,-7.03027 4.8496,-18.38737 0,-5.7927 0.1993,-10.5321 0.4429,-10.5321 0.2435,0 1.9942,0.9154 3.8904,2.0341 5.0307,2.9682 12.1988,3.5346 19.1519,1.5132 4.6373,-1.3481 6.9738,-2.8463 11.5044,-7.3769 7.8674,-7.8674 10.3839,-14.4372 10.432,-27.2346 0.033,-8.8161 -0.2194,-10.0829 -3.2296,-16.1973 -5.5687,-11.3118 -15.1344,-17.7385 -26.4022,-17.7385 -5.1165,0 -11.0012,1.9764 -14.0204,4.7087 -1.6842,1.5242 -2.0045,1.4402 -4.8286,-1.2654 -2.2945,-2.1983 -3.9789,-2.8979 -6.9777,-2.8979 -4.8502,0 -7.7419,2.5846 -9.0105,8.0536 -1.2965,5.5894 -1.1941,73.9912 0.1179,78.7159 0.5827,2.0982 1.9302,4.68567 2.9944,5.74997 2.1571,2.1571 7.8341,2.5947 11.0855,0.8546 z m 10.3633,-45.08737 c -3.6061,-2.8366 -5.5137,-7.5885 -5.5137,-13.7349 0,-12.362 8.3691,-19.8631 17.387,-15.5838 13.4238,6.37 9.6052,31.4866 -4.7869,31.4866 -2.928,0 -5.2229,-0.7021 -7.0864,-2.1679 z m -352.51371,18.9626 c 5.7066,-1.6878 13.0088,-5.9983 15.0736,-8.8981 2.4228,-3.4025 2.5127,-9.0718 0.1764,-11.1233 -3.4828,-3.0583 -5.92,-2.9921 -13.4587,0.3659 -11.9053,5.3029 -22.57819,4.041 -26.27439,-3.1065 -0.8343,-1.6133 -1.5169,-3.4057 -1.5169,-3.983 0,-0.697 6.5374,-1.0497 19.45299,-1.0497 20.9011,0 24.1613,-0.6152 25.2004,-4.755 1.8687,-7.4456 -2.5007,-19.7061 -9.4585,-26.5403 -6.6646,-6.5463 -12.8859,-9.1026 -22.1949,-9.12 -12.85139,-0.024 -23.76419,6.6619 -29.56119,18.1111 -2.7218,5.3757 -2.9388,6.6162 -2.9388,16.8042 0,10.632 0.1148,11.2116 3.4293,17.325 3.6919,6.8093 8.0497,11.0034 14.876,14.317 7.1822,3.4864 18.64019,4.1828 27.19469,1.6527 z m -25.99999,-41.8444 c 0,-2.1191 3.0807,-6.9231 5.1498,-8.0304 8.42909,-4.5112 16.64929,-1.8777 19.75889,6.3301 l 1.0418,2.75 -12.9752,0 c -8.39279,0 -12.97529,-0.3707 -12.97529,-1.0497 z m 471,41.8444 c 5.7066,-1.6878 13.0088,-5.9983 15.0736,-8.8981 2.4228,-3.4025 2.5127,-9.0718 0.1764,-11.1233 -3.4828,-3.0583 -5.92,-2.9921 -13.4587,0.3659 -11.9053,5.3029 -22.5782,4.041 -26.2744,-3.1065 -0.8343,-1.6133 -1.5169,-3.3805 -1.5169,-3.9269 0,-0.617 7.9911,-1.1096 21.0823,-1.2997 24.8163,-0.3603 24.404,-0.1806 23.6405,-10.3065 -1.4693,-19.4869 -19.3643,-33.4146 -37.97,-29.5521 -16.9563,3.5201 -27.5043,18.06 -26.5895,36.6519 1.1685,23.7458 22.3298,38.1477 45.8367,31.1953 z m -26,-41.9267 c 0,-1.9121 3.9395,-7.6285 5.7702,-8.3729 4.6235,-1.88 7.4738,-2.2665 10.5175,-1.4261 3.7522,1.036 8.1698,5.3051 8.983,8.681 0.5409,2.2451 0.514,2.25 -12.3643,2.25 -8.9407,0 -12.9064,-0.3478 -12.9064,-1.132 z m 143.2442,41.5836 c 22.6509,-7.8094 28.1132,-43.7605 9.1752,-60.3883 -6.4112,-5.6291 -11.7484,-7.4933 -21.4194,-7.4816 -10.8248,0.013 -16.9147,2.5202 -23.7958,9.796 -6.5764,6.9535 -9.3833,14.4627 -9.3904,25.1223 -0.01,13.0592 4.5938,22.7121 13.9095,29.173 9.2083,6.3864 20.152,7.6983 31.5209,3.7786 z m -17.9566,-18.0275 c -6.6427,-3.386 -9.3032,-15.3878 -5.3442,-24.1078 3.5057,-7.7216 12.2467,-9.7224 18.4975,-4.234 6.9735,6.1228 7.3335,18.6622 0.7474,26.0327 -3.3565,3.7562 -9.1679,4.7216 -13.9007,2.3091 z m -653.0066,17.1913 c 2.862,-2.6524 4.2417,-6.7164 8.3112,-24.4812 1.5288,-6.6738 3.0376,-12.1342 3.3529,-12.1342 0.3153,0 1.6031,3.9375 2.8618,8.75 6.0345,23.0713 6.4563,24.3202 9.2082,27.2662 2.3617,2.5282 3.5371,2.9838 7.6976,2.9838 5.5286,0 8.6034,-2.1048 10.7981,-7.3916 2.5726,-6.1974 16.5384,-46.6044 17.1299,-49.5617 0.7169,-3.5844 -1.1763,-8.7278 -3.7121,-10.0849 -2.3546,-1.2602 -7.5623,-1.2282 -9.9714,0.061 -2.8973,1.5505 -3.8175,3.865 -9.5174,23.9375 -2.8956,10.1967 -5.5116,17.8646 -5.8133,17.0396 -0.3018,-0.825 -2.3899,-8.7 -4.6403,-17.5 -2.2504,-8.8 -4.5634,-17.2156 -5.14,-18.7013 -2.2318,-5.7502 -9.6723,-7.5941 -14.3192,-3.5487 -2.0938,1.8227 -3.1707,4.7186 -5.6707,15.25 -1.6974,7.15 -3.846,16.1343 -4.7747,19.9651 l -1.6885,6.9651 -5.4465,-18.9181 c -2.9956,-10.4049 -6.3547,-20.2747 -7.4647,-21.9328 -5.2537,-7.8486 -17.0713,-3.7677 -16.7741,5.7923 0.097,3.1211 15.6014,47.4579 18.6728,53.3973 2.1134,4.0871 4.1264,5.1637 9.7234,5.2006 3.4928,0.023 5.225,-0.5451 7.177,-2.3541 z m 149.05789,1.4459 c 1.358,-0.5164 3.367,-1.9027 4.4646,-3.0807 l 1.9955,-2.142 4.2775,2.8307 c 3.7624,2.4898 5.1894,2.8279 11.8505,2.8075 5.9126,-0.018 8.5139,-0.5205 11.8645,-2.2915 6.1162,-3.2327 11.9896,-9.4871 15.0606,-16.0373 2.3372,-4.9852 2.6479,-6.8802 2.6479,-16.148 0,-9.2208 -0.3169,-11.1756 -2.6011,-16.0456 -3.4402,-7.3345 -7.604,-11.9206 -14.08,-15.5078 -4.5619,-2.527 -6.3863,-2.9463 -12.8189,-2.9465 -5.9832,-1e-4 -8.2699,0.4549 -11.3071,2.2499 -2.094,1.2375 -4.0065,2.25 -4.25,2.25 -0.2436,0 -0.4429,-5.3788 -0.4429,-11.953 0,-7.1373 -0.4813,-13.0093 -1.1947,-14.5749 -1.224,-2.68648 -5.4519,-5.47211 -8.3053,-5.47211 -3.1935,0 -7.3032,2.99661 -8.3916,6.11881 -0.7387,2.1192 -1.1084,16.3361 -1.1084,42.6293 0,43.2205 0.2284,45.0642 5.8384,47.1191 3.5031,1.2831 3.6264,1.2868 6.5005,0.1941 z m 16.3037,-18.1142 c -6.3865,-1.8587 -10.3372,-9.4346 -9.3345,-17.9002 1.1161,-9.4245 5.4549,-14.3196 12.6919,-14.3196 5.1515,0 8.726,2.456 11.0618,7.6007 5.9455,13.0946 -2.7872,28.0046 -14.4192,24.6191 z m 62.6752,16.1795 c 2.8232,-2.8231 3.6325,-8.3335 3.6584,-24.9087 0.032,-20.4332 1.6534,-24.2179 10.3763,-24.2179 8.9766,0 9.9629,2.4764 10.6238,26.6719 0.5041,18.4532 0.6128,19.2666 2.8993,21.6981 3.1226,3.3207 7.202,4.1584 10.9106,2.2406 5.0553,-2.6142 5.7138,-5.9117 5.7138,-28.6106 0,-17.3818 -0.2751,-21.2128 -1.8084,-25.1864 -2.2433,-5.8134 -8.1969,-11.3323 -13.8849,-12.8711 -6.7606,-1.8291 -17.0555,-0.7054 -21.7006,2.3686 -3.8189,2.5272 -3.9304,2.5405 -5.622,0.6713 -4.1369,-4.5712 -10.8591,-4.5685 -14.9841,0.01 -1.8787,2.0834 -2.0166,3.8343 -2.2731,28.8647 -0.2447,23.8707 -0.088,27.01 1.5,30.1329 0.9752,1.9174 2.8981,4.0665 4.2731,4.7759 3.0609,1.5791 7.8648,0.8177 10.3178,-1.6353 z m 95.87691,-0.6983 4.3111,-3.0387 2.2227,2.684 c 4.0533,4.8942 11.9998,4.2863 14.8019,-1.1324 2.2171,-4.2873 2.1502,-54.7244 -0.078,-59.0338 -2.8985,-5.6051 -9.4737,-6.1221 -14.6954,-1.1554 l -2.7432,2.6093 -2.2568,-2.1141 c -5.4427,-5.0985 -17.1045,-5.8715 -25.4957,-1.69 -19.47391,9.7043 -24.55261,39.7798 -9.53741,56.4802 6.70141,7.4536 12.75211,10.1361 21.96821,9.7393 6.1189,-0.2635 7.835,-0.763 11.5029,-3.3484 z m -15.0049,-16.7812 c -8.0757,-4.4813 -9.2357,-20.0652 -1.997,-26.8272 5.3407,-4.9889 14.9834,-3.3592 18.2155,3.0786 5.4927,10.9406 -0.2898,25.1605 -10.1931,25.0661 -2.0433,-0.02 -4.7548,-0.6124 -6.0254,-1.3175 z m 285.6914,19.2445 c 5.4981,-1.9167 6.4211,-5.2045 6.9249,-24.6686 0.5186,-20.0377 0.02,-19.0711 12.2462,-23.743 3.8281,-1.4628 7.6323,-3.6193 8.4539,-4.7923 4.1051,-5.8608 -0.69,-14.6877 -7.9789,-14.6877 -3.6976,0 -8.6102,1.998 -11.8062,4.8018 -1.6269,1.4272 -1.905,1.3807 -3.2531,-0.5441 -2.2466,-3.2074 -7.8766,-4.7453 -11.6498,-3.1824 -5.341,2.2123 -5.8182,4.9592 -5.8182,33.4914 0,28.1658 0.5614,31.3675 5.8384,33.3005 3.5355,1.295 3.3993,1.2945 7.0428,0.024 z m 123.4366,-1.765 c 2.8232,-2.8231 3.6325,-8.3335 3.6583,-24.9087 0.032,-20.4332 1.6535,-24.2179 10.3764,-24.2179 8.9765,0 9.9629,2.4764 10.6238,26.6719 0.5041,18.4532 0.6128,19.2666 2.8993,21.6981 3.1226,3.3207 7.2019,4.1584 10.9106,2.2406 5.0553,-2.6142 5.7138,-5.9117 5.7138,-28.6106 0,-17.3818 -0.2751,-21.2128 -1.8084,-25.1864 -2.2433,-5.8134 -8.1969,-11.3323 -13.8849,-12.8711 -6.7607,-1.8291 -17.0555,-0.7054 -21.7007,2.3686 -3.8188,2.5272 -3.9303,2.5405 -5.622,0.6713 -4.1368,-4.5712 -10.859,-4.5685 -14.984,0.01 -1.8787,2.0834 -2.0166,3.8343 -2.2731,28.8647 -0.2447,23.8707 -0.088,27.01 1.5,30.1329 0.9752,1.9174 2.8981,4.0665 4.2731,4.7759 3.0609,1.5791 7.8647,0.8177 10.3178,-1.6353 z M 361.83219,790.87712 c 1.6485,-2.0625 10.5669,-14.775 19.8185,-28.25 9.2517,-13.475 18.7214,-26.75 21.0439,-29.5 6.0747,-7.19288 20.3513,-28.03746 66.2547,-96.73534 22.3206,-33.40443 40.6877,-60.62943 40.8159,-60.5 0.1282,0.12944 0.986,40.28534 1.9062,89.23534 0.9202,48.95 1.7462,89.06362 1.8356,89.14138 1.6121,1.40262 50.33221,30.88247 55.85661,33.798 8.8869,4.6901 6.7445,5.74732 16.9462,-8.36277 10.8873,-15.05857 33.297,-48.13666 86.9079,-128.28152 l 52.6477,-78.70491 0.648,12.70491 c 0.3564,6.9877 0.6498,27.14354 0.652,44.79074 0,17.64721 0.3022,52.39264 0.6666,77.21208 l 0.6624,45.12624 24.5876,14.68514 c 31.2564,18.66821 34.8811,20.796 38.8235,22.79047 l 3.236,1.6371 97.028,-145.53686 97.028,-145.53686 3.1671,1.63774 c 1.7418,0.90075 8.598,5.11754 15.2359,9.37064 13.6409,8.7401 16.5459,10.38487 17.1952,9.73566 0.9263,-0.92632 6.1504,-137.3211 5.2884,-138.07294 -0.5315,-0.46356 -63.0202,-42.02563 -64.6029,-42.96826 -0.7861,-0.46823 -22.4435,31.024 -64,93.06315 l -62.8117,93.77087 -0.6344,-15.5 c -0.3489,-8.525 -1.184,-50.15 -1.8557,-92.5 -0.8727,-55.02003 -1.548,-77.32294 -2.3656,-78.13133 -1.7397,-1.72 -41.9534,-26.05484 -50.4562,-30.53296 -4.1116,-2.16542 -8.3724,-3.80181 -9.4685,-3.63642 -1.401,0.21142 -23.7027,32.61185 -75.1062,109.11601 l -73.1134,108.81529 -0.6291,-7.81529 c -0.346,-4.29842 -1.199,-44.4903 -1.8954,-89.3153 -0.6965,-44.825 -1.6069,-82.4 -2.0232,-83.5 -0.6891,-1.821 -60.585,-39.55923 -62.6286,-39.46001 -0.45301,0.022 -34.34871,50.20936 -75.32371,111.52747 l -74.5,111.48746 -0.2808,-18.77746 c -0.1544,-10.3276 -0.6044,-51.55015 -1,-91.60567 l -0.7192,-72.82821 -33.4799,-20.39187 c -18.41399,-11.21554 -33.76209,-20.06784 -34.10709,-19.6718 -1.8099,2.07809 -102.8699,156.40246 -104.8781,160.15498 -1.0519,1.96546 0.8531,3.40434 29.9208,22.59973 l 31.0443,20.50062 0,124.92182 0,124.92182 9.25,5.72523 c 22.9843,14.22597 52.0722,31.39589 53.1884,31.39589 0.6748,0 2.57569,-1.6875 4.22429,-3.75 z"
     id="path2987"
     inkscape:connector-curvature="0" />
</svg>
